<?xml version="1.0" standalone="no"?>
<!DOCTYPE svg PUBLIC "-//W3C//DTD SVG 20010904//EN"
 "http://www.w3.org/TR/2001/REC-SVG-20010904/DTD/svg10.dtd">
<svg version="1.0" xmlns="http://www.w3.org/2000/svg"
 width="500.000000pt" height="500.000000pt" viewBox="0 0 500.000000 500.000000"
 preserveAspectRatio="xMidYMid meet">
<metadata>
Created by potrace 1.14, written by Peter Selinger 2001-2017
</metadata>
<g transform="translate(0.000000,500.000000) scale(0.100000,-0.100000)"
fill="#000000" stroke="none">
<path d="M1808 4676 c-10 -7 -15 -16 -11 -19 7 -7 -12 -11 -36 -7 -13 2 -13 0
0 -16 9 -11 9 -15 1 -10 -13 8 -34 -32 -25 -47 2 -4 1 -7 -4 -6 -20 4 -24 -2
-12 -18 10 -11 10 -14 2 -9 -8 4 -13 2 -13 -4 0 -6 -4 -8 -10 -5 -5 3 -10 -3
-10 -14 0 -22 -15 -28 -23 -11 -3 6 -4 5 -3 -2 2 -7 -6 -24 -18 -38 l-21 -25
26 23 c14 12 29 22 35 22 5 0 3 -4 -4 -9 -12 -7 -18 -24 -21 -53 -1 -5 -6 -8
-12 -8 -8 0 -7 6 2 18 11 14 11 15 -1 5 -18 -17 -22 -45 -7 -56 7 -5 3 -7 -11
-4 -13 3 -21 3 -18 0 3 -4 -1 -14 -10 -24 -12 -13 -12 -19 -3 -25 7 -4 10 -3
5 4 -3 6 -2 13 4 17 5 3 10 -1 10 -9 0 -8 -9 -20 -20 -26 -11 -6 -20 -16 -20
-23 0 -9 2 -9 8 -1 5 9 11 8 20 -2 10 -12 10 -14 -3 -14 -8 0 -15 -5 -15 -11
0 -5 5 -7 12 -3 7 4 8 3 4 -5 -4 -6 -15 -10 -23 -9 -9 2 -18 -4 -20 -12 -4
-13 -3 -13 6 0 9 13 11 13 11 -2 0 -10 -4 -18 -10 -18 -5 0 -10 -5 -10 -11 0
-5 6 -7 13 -3 7 5 6 0 -3 -11 -8 -10 -14 -20 -13 -21 5 -8 -10 -33 -17 -29
-11 7 -6 -22 5 -32 4 -4 5 -3 2 3 -3 6 0 11 8 11 13 0 13 -3 0 -17 -8 -9 -12
-20 -8 -25 5 -4 2 -5 -5 -1 -7 4 -9 13 -5 19 4 7 0 6 -10 -2 -17 -14 -24 -26
-9 -17 5 3 9 -10 10 -29 1 -19 -3 -35 -9 -35 -6 0 -7 6 -3 13 5 9 4 9 -6 0
-16 -15 -22 -43 -9 -43 5 0 9 -4 9 -10 0 -5 -6 -7 -14 -4 -8 3 -17 0 -22 -7
-4 -7 -3 -10 3 -6 6 4 13 0 17 -8 3 -8 0 -17 -6 -21 -7 -5 -8 -2 -3 6 5 9 4
11 -3 6 -9 -5 -9 -13 0 -29 10 -20 10 -21 -5 -8 -21 17 -22 8 -1 -13 14 -15
14 -16 -3 -17 -16 0 -16 -1 2 -9 16 -7 16 -9 4 -9 -9 -1 -20 -8 -23 -17 -6
-15 -4 -15 11 -3 17 13 17 13 0 -13 -12 -19 -14 -29 -5 -34 7 -5 8 -3 3 6 -6
9 -4 11 4 5 9 -5 9 -11 3 -17 -6 -6 -8 -18 -5 -27 4 -13 3 -14 -5 -1 -6 8 -9
17 -7 20 2 4 -2 7 -9 7 -14 0 -14 -1 14 -57 8 -15 7 -18 -4 -14 -18 7 -30 -12
-15 -22 8 -5 9 -3 4 6 -6 9 -4 11 5 5 10 -6 9 -12 -8 -25 -16 -14 -18 -20 -9
-30 7 -8 -1 -6 -16 4 l-28 17 17 -26 c15 -23 15 -25 0 -19 -11 4 -16 1 -16
-11 0 -10 5 -14 13 -9 6 4 3 -2 -7 -14 -20 -24 -36 -31 -17 -9 8 10 7 14 -4
14 -8 0 -13 -3 -10 -5 3 -3 0 -11 -6 -18 -7 -8 -6 -14 2 -20 8 -5 9 -3 4 6 -6
9 -4 11 4 6 9 -6 8 -13 -5 -27 -9 -10 -20 -16 -25 -14 -4 3 -10 1 -14 -5 -3
-5 -15 -10 -25 -10 -10 0 -25 -7 -33 -15 -12 -11 -17 -12 -20 -2 -3 7 -6 5 -6
-5 -1 -22 -17 -32 -27 -17 -4 8 -3 9 4 5 7 -4 12 -2 12 4 0 7 -6 10 -12 8 -7
-3 -13 -14 -13 -26 0 -11 -4 -24 -9 -29 -5 -5 -6 -3 -2 5 9 15 -20 16 -30 0
-4 -7 -3 -8 4 -4 7 4 12 1 12 -9 0 -9 -4 -13 -10 -10 -5 3 -12 -5 -16 -19 -4
-18 -10 -23 -22 -18 -15 5 -15 4 -3 -11 11 -14 11 -18 -2 -23 -9 -3 -21 -2
-28 2 -7 4 -9 3 -5 -4 3 -6 -2 -15 -11 -21 -10 -6 -13 -11 -7 -11 5 0 15 5 22
12 9 9 12 9 12 1 0 -7 -4 -15 -10 -18 -5 -3 -10 -19 -10 -35 0 -34 -20 -81
-31 -75 -9 6 -7 -15 4 -31 3 -6 4 -14 0 -18 -11 -11 -12 -57 -1 -50 6 4 8 1 6
-7 -3 -8 -10 -13 -15 -12 -6 1 -8 -9 -5 -22 2 -15 9 -22 16 -18 6 3 6 0 -1 -8
-16 -16 -17 -33 -2 -23 13 8 9 -54 -5 -76 -8 -12 -7 -13 4 -3 15 14 55 -1 45
-17 -3 -5 0 -20 7 -32 13 -25 15 -30 17 -54 1 -14 3 -15 18 -3 15 13 15 12 5
-6 -9 -18 -7 -21 9 -22 12 -1 17 3 13 9 -4 7 -2 8 5 4 9 -6 9 -11 0 -22 -10
-12 -8 -13 13 -5 18 7 25 6 25 -4 0 -7 -6 -11 -14 -8 -7 3 -13 1 -13 -5 0 -11
18 -11 38 2 7 4 16 5 19 2 4 -3 1 -6 -5 -6 -7 0 -12 -3 -12 -7 0 -5 11 -8 24
-8 13 0 22 3 20 6 -2 4 5 9 16 12 13 3 18 1 13 -6 -4 -6 0 -8 10 -4 10 4 16 2
14 -6 -1 -7 3 -11 9 -10 6 1 11 -4 11 -11 0 -6 -9 -13 -20 -13 -13 -1 -17 3
-13 13 3 9 1 12 -4 9 -6 -3 -10 -1 -10 6 0 7 -3 10 -6 7 -3 -4 -1 -15 5 -26 6
-11 7 -22 4 -26 -10 -9 -13 -36 -4 -36 4 0 13 6 21 13 12 10 12 9 3 -3 -7 -10
-8 -21 -3 -30 6 -9 3 -18 -8 -27 -15 -11 -14 -12 8 -8 24 4 25 4 5 -12 -15
-11 -15 -14 -3 -10 10 3 23 -3 34 -16 10 -12 12 -16 4 -9 -8 6 -19 12 -25 12
-5 -1 1 -9 14 -20 12 -11 27 -18 31 -15 5 3 6 -3 3 -14 -3 -10 1 -22 8 -26 8
-6 10 -4 4 5 -5 9 -4 11 4 6 6 -4 9 -12 6 -17 -4 -5 1 -12 9 -15 9 -3 14 -10
11 -14 -3 -4 2 -10 10 -14 8 -3 15 -15 15 -26 0 -11 5 -20 11 -20 5 0 8 -3 5
-8 -2 -4 2 -16 10 -27 8 -10 14 -14 14 -9 0 6 -5 15 -12 22 -9 9 -9 12 -1 12
12 0 29 -38 24 -54 -1 -5 5 -4 13 4 16 12 21 5 17 -22 0 -5 3 -8 9 -8 5 0 10
5 10 11 0 6 6 9 13 6 6 -2 11 -11 9 -20 -2 -12 2 -15 14 -10 13 5 15 3 9 -8
-7 -12 -6 -12 7 -1 13 10 18 10 24 1 4 -8 3 -9 -4 -5 -7 4 -12 3 -12 -2 0 -6
7 -13 16 -16 22 -9 26 -8 18 5 -4 7 7 1 25 -12 36 -27 42 -38 8 -16 -19 12
-24 13 -24 2 0 -8 3 -14 6 -13 20 2 31 -4 25 -13 -4 -7 1 -7 16 1 12 6 24 9
28 6 3 -3 1 -6 -4 -6 -5 0 -10 -19 -10 -43 -1 -23 1 -35 4 -27 2 8 9 23 14 34
8 14 7 17 -3 11 -7 -5 -10 -4 -5 3 4 7 16 6 36 -6 29 -17 29 -17 7 -29 -12 -6
-25 -9 -28 -7 -4 2 -9 -3 -12 -10 -4 -10 -16 -13 -34 -11 -15 2 -22 2 -15 -1
17 -8 15 -24 -2 -24 -8 0 -18 -5 -22 -12 -5 -7 -2 -9 8 -6 8 4 15 0 15 -8 0
-7 -4 -11 -8 -9 -4 3 -10 -2 -13 -11 -9 -23 -8 -24 12 -19 9 3 2 -2 -15 -10
-39 -18 -41 -23 -9 -20 18 2 23 -1 19 -11 -5 -13 -17 -18 -36 -15 -5 1 -5 -3
-2 -9 4 -6 12 -9 19 -7 8 3 11 -6 8 -28 -2 -18 1 -36 7 -39 7 -5 9 0 5 11 -5
15 -4 15 4 3 12 -15 6 -33 -8 -25 -5 3 -12 1 -15 -5 -4 -6 -1 -9 6 -8 15 3 19
-22 7 -38 -13 -17 -12 -118 0 -122 6 -2 8 -10 5 -19 -5 -12 -3 -14 7 -8 9 5
11 4 6 -4 -4 -6 -11 -9 -16 -6 -5 3 -12 0 -16 -6 -4 -8 -3 -9 4 -5 12 7 28
-20 26 -44 -1 -8 -2 -21 -3 -28 0 -7 -6 -10 -13 -6 -7 4 -8 3 -4 -4 4 -6 12
-9 20 -6 7 3 13 -2 13 -10 0 -8 -3 -13 -7 -11 -4 2 -7 -2 -7 -10 0 -8 4 -12 8
-10 4 3 9 -2 12 -10 4 -10 1 -12 -11 -8 -9 3 -3 -5 13 -16 l30 -22 -29 5 c-16
3 -25 2 -21 -2 3 -4 11 -8 16 -8 5 -1 12 -2 15 -3 4 0 1 -8 -6 -16 -14 -17 0
-21 16 -5 6 6 10 3 11 -10 1 -13 -3 -18 -10 -14 -7 4 -1 -5 13 -18 14 -14 33
-24 42 -22 11 2 15 -2 11 -12 -6 -16 17 -16 30 1 5 6 7 4 4 -5 -2 -8 -8 -15
-13 -15 -5 -1 -19 -6 -30 -13 -12 -6 -24 -8 -28 -5 -3 3 -6 0 -6 -7 0 -7 -3
-11 -6 -7 -4 3 -23 0 -43 -8 -30 -12 -33 -12 -18 -1 12 9 14 16 8 21 -6 3 -11
2 -11 -2 0 -5 -20 -16 -45 -25 -43 -16 -45 -16 -55 3 -6 10 -16 19 -23 19 -7
0 -8 -3 -2 -8 16 -12 16 -32 0 -26 -8 4 -15 10 -15 15 0 14 -28 11 -34 -3 -4
-9 -5 -8 -5 2 2 33 -1 50 -11 50 -5 0 -7 -7 -4 -15 5 -12 -1 -11 -34 3 -25 10
-36 20 -29 24 7 5 8 8 1 8 -5 0 -16 -6 -23 -12 -11 -10 -13 -10 -7 0 6 11 -10
17 -36 13 -4 0 -5 9 -3 21 3 11 2 18 -2 14 -3 -3 -12 -1 -19 5 -8 7 -14 7 -19
-1 -4 -6 -1 -9 6 -8 6 2 13 -3 15 -10 1 -7 0 -8 -3 -2 -2 5 -8 8 -13 5 -4 -3
-16 8 -26 23 -17 26 -17 27 2 12 18 -14 18 -14 5 3 -10 12 -17 14 -26 7 -9 -8
-14 -6 -19 5 -3 9 -2 13 4 10 6 -3 10 -1 10 4 0 6 -9 11 -19 11 -22 0 -37 33
-25 52 6 10 5 11 -8 1 -17 -14 -29 -8 -22 12 3 7 -4 15 -15 18 -20 5 -22 21
-7 46 7 10 3 12 -15 6 -13 -3 -19 -3 -13 2 14 10 24 63 13 63 -5 0 -9 -5 -9
-12 0 -6 -3 -9 -6 -5 -7 6 12 43 20 40 3 -2 6 0 6 5 0 4 -4 7 -9 7 -5 0 -13 4
-18 9 -4 5 -3 6 3 3 10 -6 21 13 21 33 0 3 5 15 11 27 10 18 9 24 -5 32 -11 6
-13 11 -5 11 7 0 11 4 8 9 -3 5 1 14 9 21 8 7 12 17 8 23 -4 6 -1 7 6 3 9 -6
8 -13 -5 -27 -9 -10 -13 -19 -7 -19 5 0 16 11 23 25 7 13 18 21 24 18 6 -3 7
-2 3 3 -5 5 -13 10 -18 10 -5 1 -12 2 -15 3 -3 0 4 15 16 31 12 17 26 27 32
24 7 -4 8 -2 4 5 -4 6 -11 9 -15 7 -4 -3 -7 13 -6 35 2 32 -1 39 -13 34 -12
-4 -11 0 4 17 l19 22 -26 -16 c-26 -16 -27 -16 -22 2 3 12 10 17 17 13 6 -4 5
1 -3 10 -7 9 -15 17 -16 17 -1 0 -9 -8 -16 -17 -12 -14 -12 -16 0 -8 10 5 12
4 7 -4 -4 -6 -12 -9 -17 -5 -5 3 -6 10 -3 16 5 7 1 9 -9 5 -9 -3 -18 -1 -21 6
-3 9 -5 9 -5 0 -1 -7 -6 -13 -12 -13 -5 0 -8 4 -5 9 3 5 -1 11 -8 14 -10 4
-13 0 -11 -14 2 -10 0 -19 -6 -19 -5 0 -9 5 -9 12 0 6 -7 3 -16 -8 -14 -17
-15 -17 -10 -1 3 11 2 16 -4 12 -6 -3 -10 -13 -10 -22 0 -13 -2 -13 -17 -2
-15 13 -15 12 -5 -7 9 -16 8 -21 -4 -22 -7 -1 -21 -3 -29 -4 -11 -1 -12 -5 -4
-14 12 -14 -7 -14 -31 1 -13 8 -13 6 -2 -8 14 -17 8 -42 -8 -32 -5 3 -12 0
-16 -6 -4 -8 -3 -9 4 -5 7 4 12 2 12 -3 0 -6 -4 -11 -9 -11 -5 0 -11 -9 -14
-21 -3 -12 -10 -18 -16 -15 -5 4 -13 1 -17 -5 -4 -8 -3 -9 4 -5 19 11 14 -15
-5 -31 -10 -8 -12 -12 -5 -8 8 4 11 -1 8 -17 -3 -13 -5 -25 -6 -28 -2 -3 -2
-8 -2 -11 1 -4 -11 -20 -25 -35 -29 -31 -38 -54 -21 -54 6 0 8 6 5 13 -3 8 1
14 8 14 10 0 11 -5 4 -19 -5 -10 -15 -18 -22 -18 -7 0 -6 -4 3 -10 8 -5 10
-10 4 -10 -7 0 -14 -11 -16 -25 -3 -13 -2 -22 3 -20 4 3 11 0 15 -6 4 -8 3 -9
-4 -5 -7 4 -12 1 -12 -8 0 -9 -5 -16 -11 -16 -6 0 -3 -7 5 -16 19 -19 21 -30
3 -18 -7 5 -4 1 6 -8 19 -17 19 -18 1 -18 -16 0 -16 -2 -4 -9 8 -6 17 -8 20
-6 9 5 4 -44 -5 -52 -4 -5 -6 -3 -2 2 3 6 1 17 -5 25 -8 12 -9 12 -4 -2 3 -11
0 -18 -7 -18 -7 0 -4 -5 6 -11 15 -9 16 -13 5 -26 -11 -14 -10 -15 12 -8 14 4
22 4 18 0 -4 -5 -2 -15 5 -23 11 -13 9 -14 -13 -2 -21 11 -23 11 -13 -1 14
-18 14 -30 0 -48 -9 -12 -9 -13 1 -7 8 5 16 -2 23 -23 6 -17 15 -28 20 -25 5
3 6 -2 3 -10 -3 -9 -11 -13 -17 -9 -6 3 -7 1 -3 -5 4 -7 15 -12 26 -12 21 0
34 -26 18 -36 -6 -4 -8 -3 -4 4 3 6 1 14 -5 18 -8 5 -9 3 -4 -6 6 -10 3 -12
-11 -7 -14 5 -12 2 6 -12 13 -11 29 -17 34 -14 5 3 6 1 2 -5 -3 -6 -15 -9 -26
-7 -12 2 -18 0 -15 -5 3 -4 16 -7 30 -6 16 2 22 -1 18 -8 -13 -21 -11 -34 6
-39 14 -3 17 -13 15 -43 -2 -22 0 -34 4 -29 15 21 34 16 27 -6 -5 -14 -3 -19
3 -15 6 4 20 -4 31 -16 16 -16 18 -24 9 -30 -10 -6 -10 -8 -1 -8 23 0 22 18
-2 44 -13 14 -21 26 -16 26 19 0 51 -52 47 -75 -3 -15 -1 -23 5 -20 5 4 6 12
2 18 -5 8 -2 8 9 0 8 -7 19 -9 23 -5 5 4 5 1 1 -5 -4 -8 -1 -13 9 -13 10 0 14
-5 10 -12 -4 -7 1 -4 9 6 15 19 22 12 17 -16 -2 -12 6 -9 23 8 14 14 16 14 16
0 0 -9 11 -23 26 -32 20 -14 27 -15 37 -4 9 10 9 11 0 6 -16 -9 -53 11 -52 27
0 9 2 9 6 -1 2 -6 9 -10 14 -6 5 3 9 0 9 -6 0 -7 7 -9 15 -6 9 3 18 -1 21 -9
4 -8 10 -15 16 -15 5 0 7 4 4 8 -2 4 4 8 14 8 10 0 16 -4 14 -8 -3 -4 2 -8 10
-8 9 0 16 -6 16 -12 0 -8 3 -9 8 -3 9 13 62 15 62 3 0 -6 9 0 20 13 11 13 20
20 19 14 -3 -24 2 -33 18 -31 9 2 19 8 21 15 3 9 7 9 18 0 12 -10 13 -8 7 7
-5 15 -4 17 8 8 16 -12 62 -17 55 -6 -3 4 3 8 12 9 9 1 29 3 44 6 15 2 25 1
23 -4 -3 -4 -1 -10 5 -14 5 -3 10 3 10 14 0 12 5 21 11 21 5 0 7 -5 4 -10 -4
-7 3 -10 20 -7 15 2 30 9 35 17 10 16 50 24 50 10 0 -6 4 -10 10 -10 5 0 7 6
4 14 -3 8 0 17 7 22 7 4 10 3 5 -4 -3 -6 -2 -13 4 -17 9 -6 14 8 11 28 -1 5 3
6 9 2 6 -4 18 -1 26 6 13 11 15 10 12 -3 -1 -9 1 -18 7 -20 5 -2 10 5 10 14 0
25 36 48 57 37 10 -6 19 -5 23 1 4 6 12 7 18 3 7 -4 6 1 -2 10 -8 10 -11 20
-7 24 3 3 6 2 6 -4 0 -6 6 -13 14 -16 10 -4 13 0 11 14 -2 11 0 17 5 14 4 -3
11 1 14 7 3 7 3 2 0 -12 -6 -24 -5 -24 9 -5 8 10 13 26 10 35 -4 13 -3 13 5 1
6 -8 18 -16 28 -17 26 -4 37 -28 16 -36 -15 -6 -15 -7 2 -7 20 -1 20 -1 0 -17
-10 -8 -14 -13 -7 -10 18 9 22 -18 4 -30 -13 -10 -12 -13 6 -25 20 -12 20 -14
5 -27 -12 -9 -12 -11 -2 -6 8 4 -6 -14 -33 -39 -26 -26 -44 -47 -40 -47 4 0
-3 -8 -16 -17 -13 -10 -41 -35 -62 -55 -22 -21 -43 -38 -49 -38 -5 0 -10 -4
-10 -10 0 -5 -5 -10 -11 -10 -15 0 -59 -51 -59 -68 0 -7 -4 -11 -8 -8 -5 3 -9
-1 -9 -9 0 -8 5 -15 11 -15 6 0 5 -4 -3 -9 -11 -7 -8 -11 10 -17 27 -9 34 -11
50 -13 5 0 7 -7 3 -13 -5 -9 -2 -9 9 1 14 11 17 11 18 0 0 -8 4 -5 9 6 7 16 9
17 9 3 1 -9 5 -20 11 -23 6 -4 7 1 4 12 -5 14 -4 15 4 4 6 -8 17 -11 28 -7 13
4 12 0 -5 -13 l-25 -19 26 5 c15 3 29 0 33 -8 5 -7 4 -10 -2 -6 -6 4 -13 -2
-16 -13 -3 -11 -2 -18 3 -15 4 3 11 -2 14 -11 9 -23 7 -31 -4 -14 -5 8 -12 12
-15 8 -3 -3 1 -13 10 -21 19 -20 19 -28 0 -21 -8 4 -15 1 -15 -5 0 -6 3 -10 8
-10 4 1 15 1 26 0 16 -1 17 -3 5 -18 -13 -16 -12 -17 4 -4 14 11 15 16 5 30
-11 14 -11 14 2 5 18 -14 50 -10 60 7 5 6 15 9 24 6 11 -4 16 -1 16 10 0 9 3
13 7 10 3 -4 13 -1 21 6 13 10 14 9 7 -3 -8 -13 -7 -13 8 -1 9 7 17 9 17 4 0
-5 7 -10 15 -10 9 0 11 4 6 11 -6 7 -1 11 15 11 17 0 23 -4 19 -14 -5 -12 -3
-12 12 0 14 12 16 12 8 0 -6 -11 -4 -13 8 -8 9 3 23 0 31 -8 11 -11 16 -12 19
-2 3 6 6 3 6 -8 1 -17 3 -17 11 -5 5 8 10 11 10 6 0 -5 7 -3 15 4 12 10 13 15
3 28 -11 13 -10 14 9 3 22 -11 22 -10 13 14 -6 15 -6 24 -1 20 5 -3 13 0 17 6
4 8 3 9 -4 5 -7 -4 -12 -1 -12 8 0 9 -6 16 -12 16 -9 0 -8 4 2 10 8 5 10 10 4
10 -7 0 -14 11 -16 25 -3 14 -1 25 3 25 5 0 5 7 2 17 -5 12 -3 14 8 8 11 -6
12 -5 2 6 -7 7 -13 18 -13 24 0 5 5 3 11 -5 9 -12 10 -11 6 8 -3 15 0 22 9 22
8 0 14 5 14 11 0 6 -7 8 -16 5 -13 -5 -14 -3 -6 6 6 7 12 18 13 23 2 6 9 9 15
7 6 -1 16 4 23 11 8 10 7 14 -4 14 -8 0 -11 -5 -8 -10 3 -6 1 -7 -5 -3 -18 11
-15 15 14 26 23 9 24 12 13 27 -13 15 -12 15 10 4 16 -9 21 -10 16 -1 -4 7 1
14 15 17 16 4 18 8 8 14 -10 7 -10 11 0 21 10 10 15 10 22 -2 5 -8 10 -10 10
-5 0 6 -6 17 -12 24 -9 9 -9 12 -1 7 7 -3 14 2 18 14 3 11 11 20 16 20 6 0 7
-5 3 -12 -5 -7 -3 -8 5 -4 7 5 10 10 7 13 -8 9 14 44 24 38 5 -3 11 -1 15 5 3
5 0 10 -7 10 -7 1 -3 6 10 13 12 7 20 15 18 18 -3 3 11 6 32 7 28 2 33 0 22
-8 -11 -7 -6 -9 18 -6 31 3 33 2 29 -21 l-4 -24 25 23 c14 13 21 16 16 8 -10
-17 -15 -45 -7 -36 3 3 14 -5 25 -17 11 -12 17 -17 14 -11 -3 7 1 15 10 18 9
3 12 2 9 -5 -10 -15 27 -40 42 -28 7 7 16 3 25 -10 8 -12 18 -18 21 -14 4 3 7
-1 7 -10 0 -10 8 -17 20 -17 11 0 20 -5 20 -11 0 -5 -5 -7 -12 -3 -7 4 -8 3
-4 -5 6 -9 11 -9 24 1 14 12 14 10 2 -12 -7 -14 -9 -21 -4 -17 4 4 14 -3 21
-15 10 -18 12 -20 13 -5 0 9 5 17 11 17 5 0 8 -4 5 -9 -10 -16 5 -41 25 -41
10 0 19 -5 19 -11 0 -5 -5 -7 -12 -3 -7 4 -8 3 -4 -4 4 -6 13 -9 21 -5 8 3 15
0 15 -6 0 -6 6 -11 13 -11 14 0 57 -41 57 -54 0 -4 -11 6 -25 21 l-26 28 23
-36 c18 -29 26 -34 37 -25 11 9 13 6 6 -14 -7 -22 -6 -23 9 -11 14 12 16 12
10 -4 -5 -12 -4 -16 4 -11 6 3 13 2 17 -4 3 -5 1 -10 -6 -10 -7 0 -10 -3 -6
-6 3 -3 12 -2 19 2 7 5 20 9 28 9 29 1 58 35 29 35 -5 0 -8 -4 -4 -9 3 -5 1
-12 -5 -16 -5 -3 -10 1 -10 9 0 8 5 18 11 22 8 4 7 9 -2 15 -11 7 -9 9 6 10
13 0 15 2 6 6 -10 4 -8 9 10 20 17 10 18 13 4 8 -17 -5 -17 -4 4 19 13 14 28
23 32 20 5 -3 9 0 9 5 0 6 22 11 51 11 27 0 48 -3 45 -8 -9 -16 73 -6 91 11
11 9 23 14 27 10 4 -4 4 0 0 10 -3 9 -11 14 -18 10 -6 -4 -6 -1 2 9 10 13 10
17 -4 22 -11 4 -13 10 -6 19 5 6 13 23 16 37 l7 25 -16 -25 c-12 -18 -14 -19
-9 -5 3 11 7 25 7 32 0 6 7 8 16 5 13 -5 14 -3 4 9 -10 12 -8 14 11 14 12 -1
27 -5 34 -9 7 -4 12 -3 12 3 0 5 -6 11 -12 14 -7 2 -10 8 -6 12 4 4 13 3 20
-1 18 -11 48 -12 42 -2 -4 5 -13 7 -21 4 -8 -4 -11 -1 -8 5 4 6 14 7 24 3 23
-10 84 -5 96 8 7 8 5 9 -7 5 -22 -8 -34 11 -19 26 9 9 10 7 5 -8 -7 -18 -6
-18 9 -6 16 13 16 14 1 26 -11 8 -14 17 -9 26 5 8 5 11 0 7 -4 -4 -17 -3 -28
3 -10 6 -17 7 -14 2 4 -5 0 -10 -8 -10 -8 0 -12 3 -10 7 2 3 0 12 -6 20 -7 13
-9 12 -9 -2 0 -21 -16 -32 -26 -17 -5 8 -3 9 7 4 12 -7 12 -6 1 7 -15 18 -22
18 -76 -5 -46 -20 -49 -21 -40 -5 5 7 3 8 -7 2 -18 -11 -80 -13 -73 -3 2 5 12
5 22 2 18 -7 17 -5 -12 17 -11 8 -17 10 -13 4 4 -7 0 -15 -9 -18 -8 -3 -12 -2
-9 4 3 6 -1 10 -10 10 -9 0 -14 -3 -12 -8 3 -4 -5 -7 -18 -7 -13 0 -21 3 -19
7 6 9 -24 4 -33 -7 -5 -4 -1 -5 7 0 8 5 12 4 7 0 -10 -12 -38 -15 -31 -4 3 5
0 9 -6 9 -6 0 -8 5 -4 12 4 7 3 8 -5 4 -6 -4 -8 -12 -5 -18 4 -7 -2 -8 -17 -3
-13 4 -26 12 -27 16 -2 5 -7 7 -11 5 -11 -7 -11 37 1 51 8 10 7 12 -4 8 -12
-5 -15 1 -12 30 1 23 -1 33 -8 29 -7 -5 -8 -2 -3 6 9 14 11 98 2 106 -3 3 -3
17 -1 30 2 13 0 24 -6 24 -6 0 -8 -4 -5 -10 3 -5 0 -10 -7 -10 -9 0 -9 -3 2
-10 8 -5 10 -10 4 -10 -18 0 -24 12 -14 31 7 12 7 20 0 24 -5 3 -10 11 -10 18
0 6 5 5 13 -4 6 -8 11 -12 10 -10 -2 2 3 11 10 19 8 10 8 13 1 9 -7 -4 -14 0
-17 7 -3 8 -1 17 6 20 9 3 8 5 -1 5 -8 1 -10 6 -6 14 5 7 0 6 -11 -3 -19 -15
-19 -14 -1 14 10 16 12 25 5 21 -9 -6 -11 -3 -6 8 3 9 1 22 -6 29 -26 28 -40
49 -31 47 21 -4 24 3 10 29 -7 15 -12 39 -11 54 2 16 -2 29 -11 32 -8 3 -14
19 -14 40 0 37 16 57 26 32 3 -9 10 -13 15 -10 5 3 6 11 3 17 -4 7 -4 9 1 5 4
-4 13 -3 20 2 8 7 12 5 12 -5 0 -8 -3 -12 -7 -10 -4 2 -7 -2 -7 -10 0 -10 4
-12 12 -5 7 5 16 6 20 2 5 -4 5 -1 1 6 -4 7 -1 12 8 12 9 0 16 -4 16 -10 0 -5
5 -10 11 -10 5 0 7 5 4 10 -8 13 8 13 22 -1 8 -8 13 -7 18 2 5 7 4 10 -2 6 -6
-4 -13 0 -17 8 -6 17 10 30 19 15 3 -5 12 -10 18 -10 8 0 9 2 1 8 -15 10 -13
40 3 46 11 4 11 1 3 -17 -11 -21 -11 -21 4 -3 19 24 20 36 4 36 -9 0 -8 4 2
10 10 6 11 10 3 10 -7 0 -13 5 -13 11 0 5 6 7 13 3 10 -6 10 -4 0 7 -16 16
-17 33 -2 23 6 -3 3 5 -6 20 -10 14 -13 26 -9 26 5 0 1 5 -9 11 -9 6 -15 14
-12 20 4 5 1 9 -4 9 -6 0 -11 5 -11 11 0 5 5 7 11 3 8 -5 9 -2 1 11 -5 10 -17
20 -26 21 -9 1 -14 -2 -10 -7 3 -5 10 -7 15 -4 10 7 12 -8 3 -18 -4 -4 -15 3
-25 14 -9 11 -27 21 -38 22 -11 0 -18 3 -16 5 2 3 0 13 -5 23 -14 26 -3 46 46
80 24 16 44 36 44 43 0 8 7 20 17 27 15 13 15 12 3 -11 -12 -23 -12 -24 3 -11
10 7 17 20 17 27 0 8 6 15 13 16 6 0 17 2 22 3 6 2 14 3 18 4 4 0 3 10 -3 22
-11 19 -10 20 9 9 12 -6 21 -7 20 -3 -3 18 1 34 9 30 4 -3 16 5 27 16 l20 20
-22 -12 c-33 -17 -38 -13 -12 8 16 13 28 16 35 10 8 -7 11 -4 10 8 0 11 5 17
13 15 11 -2 12 0 2 11 -9 12 -8 16 4 21 11 4 14 2 9 -7 -6 -9 -4 -9 8 1 8 6
14 23 12 37 -1 14 2 23 7 19 5 -3 9 0 9 6 0 6 5 8 12 4 8 -5 9 -2 5 10 -5 14
-3 17 8 13 8 -4 17 -1 21 5 4 7 3 8 -4 4 -8 -5 -12 1 -12 15 0 19 2 20 17 8
13 -11 15 -11 9 -1 -5 8 -1 21 10 34 10 11 19 27 19 36 0 10 6 16 13 14 17 -3
15 3 -5 19 -14 12 -16 12 -8 0 5 -9 4 -12 -3 -7 -13 8 5 46 22 46 4 0 2 -8 -5
-17 -13 -17 -12 -17 7 0 13 10 21 28 20 45 -1 15 5 33 12 40 6 7 12 19 12 25
0 7 -5 4 -11 -5 -5 -10 -15 -18 -22 -18 -8 0 -7 3 2 9 8 5 10 14 6 21 -5 9 -4
11 3 6 7 -4 12 -3 12 3 0 6 8 8 18 4 14 -5 13 -3 -3 10 -13 11 -15 16 -6 17 7
0 11 6 8 13 -3 8 1 14 8 14 8 0 11 -7 7 -15 -3 -10 -1 -13 6 -8 7 4 12 14 12
22 0 13 12 18 32 15 4 0 5 6 1 14 -4 13 -8 13 -22 3 -14 -12 -15 -11 -2 5 11
14 16 15 29 5 13 -11 14 -10 3 9 -10 19 -9 22 4 17 11 -5 14 -2 8 12 -5 13 -3
16 9 11 11 -4 15 0 13 11 -1 9 2 25 7 36 7 13 7 16 -1 12 -6 -4 -11 -3 -11 3
0 5 4 11 9 13 6 2 12 16 15 31 4 24 2 28 -12 23 -14 -5 -13 -3 2 9 10 8 23 12
29 8 6 -3 7 -1 3 6 -4 6 -11 9 -16 6 -4 -3 -10 2 -14 10 -3 8 0 17 6 21 7 4 8
3 4 -4 -5 -8 -2 -10 9 -6 12 5 13 10 4 20 -6 8 -15 11 -20 8 -5 -3 -9 0 -9 5
0 6 4 11 9 11 5 0 12 11 15 25 4 17 11 23 19 19 8 -5 8 -3 -1 7 -11 12 -14 12
-22 -1 -5 -8 -10 -11 -10 -6 0 5 7 17 15 26 14 15 14 19 -2 31 -16 13 -17 12
-4 -3 9 -12 10 -18 2 -18 -6 0 -11 3 -12 8 0 4 -2 15 -4 25 -2 9 0 15 4 13 4
-3 13 0 21 6 13 8 13 9 -1 5 -9 -3 -22 -1 -30 4 -10 6 -8 9 11 9 19 0 22 2 10
9 -8 6 -17 8 -21 5 -4 -2 -5 5 -2 16 5 17 8 18 22 8 10 -8 10 -5 -3 10 -19 22
-32 30 -22 14 3 -5 -1 -9 -9 -9 -13 0 -13 3 0 17 13 15 13 19 -1 36 -14 18
-14 18 -4 -6 10 -24 10 -24 -4 -6 -12 15 -13 23 -4 35 7 9 8 13 4 9 -13 -11
-39 29 -30 45 4 6 4 9 -1 5 -4 -4 -15 -2 -24 5 -14 11 -15 10 -1 -8 11 -15 7
-14 -13 4 -26 24 -36 38 -18 27 5 -3 11 1 14 9 4 10 1 12 -11 8 -9 -3 -14 -3
-10 2 4 4 3 17 -3 29 -10 21 -10 21 6 1 l17 -20 -4 20 c-2 11 -6 22 -10 25 -4
3 -9 20 -13 37 -4 28 -3 32 12 27 14 -5 15 -4 4 4 -8 6 -15 21 -16 34 -1 12
-6 32 -10 42 -6 14 -5 17 3 12 8 -5 10 -2 6 8 -3 9 -9 14 -13 11 -4 -2 -7 10
-6 28 1 18 -3 36 -9 40 -7 6 -6 7 4 4 8 -2 14 -10 12 -16 -1 -7 2 -10 7 -6 14
8 2 35 -15 35 -10 0 -11 6 -4 26 14 35 13 39 -7 23 -12 -10 -15 -11 -9 -1 4 7
2 20 -6 29 -8 11 -8 14 -1 10 8 -5 11 0 10 13 -1 11 -4 20 -7 20 -9 0 -6 32 4
48 4 6 3 12 -2 12 -10 0 -11 6 -15 72 -1 27 -5 48 -8 48 -3 0 -6 6 -6 13 0 6
-4 21 -9 31 -6 15 -4 17 7 11 11 -7 12 -6 2 7 -7 8 -10 18 -6 21 3 4 1 7 -7 7
-10 0 -10 4 1 17 8 9 9 14 3 10 -7 -4 -15 0 -18 9 -4 10 -2 13 7 8 9 -6 9 -4
-1 8 -10 13 -10 17 0 21 9 4 9 6 1 6 -7 1 -10 11 -7 26 2 15 0 25 -7 25 -6 0
-8 7 -5 15 3 9 -1 18 -9 21 -8 4 -15 14 -15 23 0 9 -5 22 -12 29 -8 8 -8 15 1
26 10 12 9 14 -8 9 -23 -6 -28 6 -10 24 9 9 8 11 -2 10 -8 -2 -19 -6 -26 -10
-7 -5 -10 -1 -6 11 2 10 -3 25 -12 32 -15 12 -19 11 -33 -8 -12 -15 -26 -20
-45 -18 -21 3 -27 0 -23 -11 3 -8 1 -11 -4 -8 -6 3 -10 0 -10 -7 -1 -8 -7 -5
-17 7 -13 16 -15 17 -10 3 4 -10 2 -18 -3 -18 -6 0 -10 -7 -10 -15 0 -8 -6
-15 -14 -15 -8 0 -17 -4 -21 -9 -3 -6 4 -8 16 -6 12 2 18 1 15 -3 -4 -4 -13
-7 -19 -7 -7 0 -12 -5 -12 -12 0 -6 -4 -15 -9 -20 -5 -5 -6 -3 -2 5 4 6 3 12
-3 12 -6 0 -8 8 -4 18 3 9 3 14 -1 11 -4 -4 -9 -17 -11 -30 -3 -12 -12 -30
-21 -38 -9 -9 -14 -11 -10 -4 3 6 2 14 -4 18 -6 4 -10 -5 -10 -20 0 -18 -4
-24 -12 -19 -10 6 -10 4 0 -8 10 -13 10 -18 1 -24 -8 -4 -9 -3 -5 4 4 7 2 12
-3 12 -6 0 -11 -4 -11 -10 0 -5 -8 -10 -17 -10 -16 0 -16 -2 -3 -11 11 -8 8
-9 -14 -4 -26 5 -27 5 -12 -10 21 -22 20 -24 -8 -21 -17 2 -23 -1 -19 -10 3
-8 9 -11 15 -8 5 3 4 -3 -3 -14 -7 -12 -15 -19 -18 -17 -2 3 -12 -2 -22 -11
-12 -11 -19 -12 -24 -4 -8 13 -35 -5 -35 -23 0 -6 6 -3 13 7 13 17 14 18 20 2
4 -10 3 -14 -2 -11 -6 3 -14 -2 -19 -11 -9 -16 -10 -15 -16 4 -8 25 -37 36
-68 27 -18 -5 -20 -4 -8 5 13 9 13 12 -3 25 -11 7 -25 11 -33 8 -8 -3 -14 0
-14 6 0 6 -9 11 -19 11 -11 0 -22 6 -25 13 -3 6 -3 2 0 -10 5 -21 4 -22 -25
-7 -17 9 -31 20 -31 25 0 6 -5 7 -11 4 -7 -5 -4 -14 8 -28 16 -20 15 -20 -8 1
-15 13 -33 22 -40 20 -8 -2 -13 2 -12 7 1 6 -8 12 -20 12 -20 2 -20 1 -4 -8 9
-6 17 -15 17 -22 0 -8 -3 -8 -8 -2 -8 12 -29 18 -55 17 -11 0 -15 4 -10 11 7
13 -28 -12 -38 -27 -4 -5 -10 1 -14 13 -6 20 -25 20 -25 0 0 -6 4 -7 10 -4 6
4 7 -1 3 -11 -4 -11 -8 -13 -11 -6 -2 7 -9 9 -15 5 -6 -4 -8 0 -5 9 4 8 0 15
-8 15 -7 0 -11 -3 -9 -7 2 -3 -12 -4 -31 -2 -20 3 -44 -2 -58 -12 -23 -14 -25
-14 -40 7 -10 15 -14 16 -10 5 4 -13 1 -18 -13 -18 -10 0 -25 -6 -33 -12 -12
-11 -12 -10 -2 4 10 12 10 18 1 24 -8 4 -9 3 -5 -4 10 -16 -6 -15 -24 1 -12
10 -12 9 -2 -4 10 -13 8 -18 -13 -27 -19 -9 -24 -9 -22 1 1 6 -6 11 -15 11
-15 -1 -16 2 -6 20 l11 21 -23 -20 -23 -20 13 24 c11 21 10 23 -3 18 -11 -4
-13 0 -9 15 4 16 2 19 -9 13 -8 -5 -7 0 4 12 14 17 15 20 2 21 -8 1 -22 3 -30
4 -8 1 -12 5 -9 9 2 5 10 7 17 5 7 -1 9 -1 4 1 -4 3 -4 10 -1 15 5 7 2 8 -6 3
-10 -6 -12 -4 -6 10 5 15 4 16 -9 5 -9 -8 -15 -8 -15 -2 0 6 5 14 10 17 19 11
0 24 -28 19 -25 -5 -26 -4 -8 9 15 11 16 16 6 22 -9 6 -11 4 -5 -5 5 -9 4 -11
-4 -6 -9 6 -9 11 0 23 11 12 10 14 -2 13 -31 -5 -36 1 -33 33 3 26 2 29 -7 14
-6 -9 -15 -15 -20 -11 -6 3 -5 12 3 21 11 14 10 15 -12 8 -22 -7 -23 -6 -11 9
8 9 11 19 7 23 -3 3 -6 1 -6 -5 0 -7 -5 -12 -11 -12 -5 0 -8 3 -6 8 3 4 -2 13
-10 21 -13 12 -15 11 -9 -10 3 -15 0 -11 -9 9 -8 17 -18 32 -21 32 -3 0 -2 -5
2 -11 4 -7 -3 -6 -17 2 -13 7 -30 12 -36 11 -7 -2 -13 2 -13 8 0 5 5 10 11 10
5 0 7 5 3 11 -5 8 -9 8 -14 -1 -4 -7 -13 -10 -19 -6 -7 5 -8 1 -4 -11 6 -16 5
-16 -10 -4 -9 7 -14 17 -11 22 7 12 2 11 -18 -5z m1604 -131 c0 -5 -5 -11 -11
-13 -6 -2 -11 4 -11 13 0 9 5 15 11 13 6 -2 11 -8 11 -13z m-762 -299 c0 -2
-7 -7 -16 -10 -8 -3 -12 -2 -9 4 6 10 25 14 25 6z m230 -12 c0 -2 -7 -4 -15
-4 -8 0 -15 4 -15 10 0 5 7 7 15 4 8 -4 15 -8 15 -10z m55 -34 c3 -5 1 -10 -4
-10 -6 0 -11 5 -11 10 0 6 2 10 4 10 3 0 8 -4 11 -10z m-1841 -1002 c-5 -7 -9
-16 -9 -20 0 -7 -13 -11 -17 -5 -3 4 26 46 30 42 2 -2 0 -10 -4 -17z m-11 -55
c-10 -3 -10 -10 -2 -26 10 -21 9 -21 -5 -3 -16 20 -13 37 7 35 9 0 9 -2 0 -6z
m42 -43 c3 -5 1 -10 -4 -10 -6 0 -11 5 -11 10 0 6 2 10 4 10 3 0 8 -4 11 -10z
m6 -82 c-10 -11 -11 -9 -5 6 6 15 4 17 -6 11 -9 -6 -11 -4 -5 4 5 9 10 10 18
2 8 -8 7 -14 -2 -23z m2623 7 c-4 -8 -11 -15 -16 -15 -6 0 -5 6 2 15 7 8 14
15 16 15 2 0 1 -7 -2 -15z m-2660 -63 c3 -5 -1 -9 -9 -9 -8 0 -12 4 -9 9 3 4
7 8 9 8 2 0 6 -4 9 -8z m60 0 c3 -5 -1 -9 -9 -9 -8 0 -12 4 -9 9 3 4 7 8 9 8
2 0 6 -4 9 -8z m176 -266 c0 -2 -7 -7 -16 -10 -8 -3 -12 -2 -9 4 6 10 25 14
25 6z m2230 -109 c0 -2 -10 -12 -21 -23 -22 -19 -22 -19 -10 4 10 18 31 31 31
19z m-1850 -788 c0 -5 -4 -9 -8 -9 -5 0 -9 7 -9 15 0 8 4 12 9 9 4 -3 8 -9 8
-15z m-553 -14 c0 -8 -4 -12 -9 -9 -5 3 -6 10 -3 15 9 13 12 11 12 -6z m1927
-103 c3 -5 -1 -9 -9 -9 -8 0 -12 4 -9 9 3 4 7 8 9 8 2 0 6 -4 9 -8z m-1338
-37 c4 -26 -13 -16 -19 11 -3 18 -1 22 6 15 6 -6 12 -18 13 -26z m6 -32 c-9
-4 -10 -8 -2 -18 6 -7 12 -21 15 -31 2 -11 5 -26 8 -34 2 -8 2 -12 0 -7 -3 4
-9 5 -13 2 -5 -3 -12 0 -16 6 -4 8 -3 9 4 5 7 -4 12 -2 12 3 0 6 -4 11 -8 11
-5 0 -8 10 -8 23 1 14 -4 21 -13 19 -12 -3 -12 0 -1 12 7 9 18 16 24 15 6 0 6
-3 -2 -6z m46 -138 c-3 -3 -9 2 -12 12 -6 14 -5 15 5 6 7 -7 10 -15 7 -18z
m-38 -55 c8 -5 11 -10 5 -10 -5 0 -17 5 -25 10 -8 5 -10 10 -5 10 6 0 17 -5
25 -10z m-891 -70 c0 -10 -3 -8 -9 5 -12 27 -12 43 0 25 5 -8 9 -22 9 -30z
m2301 -46 c0 -8 -19 -13 -24 -6 -3 5 1 9 9 9 8 0 15 -2 15 -3z m-1080 -185 c0
-4 -9 -7 -19 -6 -11 0 -18 4 -16 7 6 9 35 8 35 -1z m1484 -51 c-3 -4 -12 -8
-20 -8 -8 0 -13 4 -10 8 3 5 12 9 20 9 8 0 13 -4 10 -9z m-1624 -8 c0 -5 -2
-10 -4 -10 -3 0 -8 5 -11 10 -3 6 -1 10 4 10 6 0 11 -4 11 -10z m1579 -3 c-2
-1 -13 -9 -24 -17 -19 -14 -19 -14 -6 3 7 9 18 17 24 17 6 0 8 -1 6 -3z
m-1419 -63 c0 -8 -19 -13 -24 -6 -3 5 1 9 9 9 8 0 15 -2 15 -3z m-403 -17 c0
-8 -6 -14 -14 -14 -9 0 -10 4 -2 14 6 7 12 13 14 13 1 0 2 -6 2 -13z m1058 3
c-3 -5 -1 -10 5 -10 6 0 8 -5 4 -11 -4 -8 -9 -7 -15 2 -7 12 -3 29 7 29 3 0 2
-4 -1 -10z m-1435 -40 c0 -5 -2 -10 -4 -10 -3 0 -8 5 -11 10 -3 6 -1 10 4 10
6 0 11 -4 11 -10z m127 -5 c0 -8 -4 -12 -9 -9 -5 3 -6 10 -3 15 9 13 12 11 12
-6z m1373 -1 c0 -8 -5 -12 -10 -9 -6 4 -8 11 -5 16 9 14 15 11 15 -7z m-379
-87 c-10 -9 -11 -8 -5 6 3 10 9 15 12 12 3 -3 0 -11 -7 -18z m737 -222 c-3 -3
-9 2 -12 12 -6 14 -5 15 5 6 7 -7 10 -15 7 -18z"/>
<path d="M1910 4659 c0 -5 5 -7 10 -4 6 3 10 8 10 11 0 2 -4 4 -10 4 -5 0 -10
-5 -10 -11z"/>
<path d="M1716 4595 c-3 -9 -11 -13 -17 -9 -8 5 -9 3 -4 -5 6 -10 11 -9 23 3
9 8 13 18 10 21 -3 3 -8 -1 -12 -10z"/>
<path d="M2372 4298 c-7 -7 -12 -16 -12 -21 0 -5 7 -1 16 8 9 9 14 18 12 20
-2 3 -10 -1 -16 -7z"/>
<path d="M3017 4248 c-25 -26 -18 -31 11 -8 12 10 19 20 15 23 -5 2 -16 -5
-26 -15z"/>
<path d="M1540 4169 c0 -5 5 -7 10 -4 6 3 10 8 10 11 0 2 -4 4 -10 4 -5 0 -10
-5 -10 -11z"/>
<path d="M1107 3359 c7 -7 15 -10 18 -7 3 3 -2 9 -12 12 -14 6 -15 5 -6 -5z"/>
<path d="M1065 3239 c-4 -6 -5 -12 -2 -15 2 -3 7 2 10 11 7 17 1 20 -8 4z"/>
<path d="M1076 2892 c-3 -5 1 -9 9 -9 8 0 12 4 9 9 -3 4 -7 8 -9 8 -2 0 -6 -4
-9 -8z"/>
<path d="M1103 2855 c0 -8 4 -12 9 -9 5 3 6 10 3 15 -9 13 -12 11 -12 -6z"/>
<path d="M1296 2633 c-6 -14 -5 -15 5 -6 7 7 10 15 7 18 -3 3 -9 -2 -12 -12z"/>
<path d="M1390 2459 c0 -5 5 -7 10 -4 6 3 10 8 10 11 0 2 -4 4 -10 4 -5 0 -10
-5 -10 -11z"/>
<path d="M1419 2423 c-13 -16 -12 -17 4 -4 9 7 17 15 17 17 0 8 -8 3 -21 -13z"/>
<path d="M1743 2175 c0 -7 6 -11 14 -8 7 3 13 6 13 8 0 2 -6 5 -13 8 -8 3 -14
-1 -14 -8z"/>
<path d="M3188 2143 c7 -3 16 -2 19 1 4 3 -2 6 -13 5 -11 0 -14 -3 -6 -6z"/>
<path d="M3156 2077 c3 -10 9 -15 12 -12 3 3 0 11 -7 18 -10 9 -11 8 -5 -6z"/>
<path d="M1236 2022 c-3 -5 1 -9 9 -9 8 0 12 4 9 9 -3 4 -7 8 -9 8 -2 0 -6 -4
-9 -8z"/>
<path d="M1205 1920 c-3 -6 1 -7 9 -4 18 7 21 14 7 14 -6 0 -13 -4 -16 -10z"/>
<path d="M1636 1862 c-3 -5 1 -9 9 -9 8 0 12 4 9 9 -3 4 -7 8 -9 8 -2 0 -6 -4
-9 -8z"/>
<path d="M838 1828 c9 -9 8 -16 -6 -32 -17 -21 -17 -21 5 -2 18 15 20 22 12
33 -6 7 -14 13 -17 13 -3 0 -1 -5 6 -12z"/>
<path d="M1651 1636 c-9 -10 -9 -16 -1 -21 6 -4 14 -4 17 -1 4 3 1 6 -7 6 -10
0 -10 3 0 15 7 8 10 15 7 15 -2 0 -10 -6 -16 -14z"/>
<path d="M3106 1641 c-3 -5 2 -15 12 -22 15 -12 16 -12 5 2 -7 9 -10 19 -6 22
3 4 4 7 0 7 -3 0 -8 -4 -11 -9z"/>
<path d="M1168 1583 c7 -3 16 -2 19 1 4 3 -2 6 -13 5 -11 0 -14 -3 -6 -6z"/>
<path d="M3115 1560 c3 -5 8 -10 11 -10 2 0 4 5 4 10 0 6 -5 10 -11 10 -5 0
-7 -4 -4 -10z"/>
<path d="M1220 1521 c0 -6 4 -13 10 -16 6 -3 7 1 4 9 -7 18 -14 21 -14 7z"/>
<path d="M1590 1325 c-11 -13 -10 -14 4 -9 9 3 16 10 16 15 0 13 -6 11 -20 -6z"/>
<path d="M3184 1189 c-3 -6 -1 -16 6 -22 10 -9 11 -9 5 2 -4 8 -2 17 6 22 9 6
10 9 2 9 -6 0 -15 -5 -19 -11z"/>
<path d="M3430 1085 c0 -2 6 -8 13 -14 10 -8 14 -7 14 2 0 8 -6 14 -14 14 -7
0 -13 -1 -13 -2z"/>
<path d="M1899 1033 c-12 -16 -12 -17 2 -6 9 7 20 9 24 5 5 -4 5 -1 1 6 -9 16
-11 15 -27 -5z"/>
<path d="M1733 963 c0 -9 4 -10 14 -2 7 6 13 12 13 14 0 1 -6 2 -13 2 -8 0
-14 -6 -14 -14z"/>
<path d="M1580 929 c-20 -16 -21 -18 -4 -10 12 6 23 8 26 6 3 -3 5 2 5 10 0 8
-1 15 -1 15 -1 0 -12 -10 -26 -21z"/>
<path d="M1411 914 c0 -11 3 -14 6 -6 3 7 2 16 -1 19 -3 4 -6 -2 -5 -13z"/>
<path d="M2844 912 c3 -5 0 -13 -6 -15 -9 -4 -10 -6 -1 -6 17 -1 25 16 12 25
-7 4 -9 3 -5 -4z"/>
<path d="M3490 755 c0 -8 2 -15 4 -15 2 0 6 7 10 15 3 8 1 15 -4 15 -6 0 -10
-7 -10 -15z"/>
<path d="M2380 756 c0 -2 8 -10 18 -17 15 -13 16 -12 3 4 -13 16 -21 21 -21
13z"/>
<path d="M1815 579 c-3 -4 2 -6 10 -5 21 3 28 13 10 13 -9 0 -18 -4 -20 -8z"/>
<path d="M2256 462 c-3 -5 1 -9 9 -9 8 0 12 4 9 9 -3 4 -7 8 -9 8 -2 0 -6 -4
-9 -8z"/>
</g>
</svg>
